<svg version="1" xmlns="http://www.w3.org/2000/svg" width="666.667" height="666.667" viewBox="0 0 500.000000 500.000000"><path d="M220 51.3c-28.5 14.3-40.6 20.8-54 28.7-5.3 3.2-10.3 6-14.5 8.4-11.1 6.4-35.3 22.7-51.1 34.6-8.2 6.2-15.1 11.5-15.4 11.9-.3.3-3.9 3.5-8 7.1-18.8 16.4-39.8 40.6-47.6 55-1 1.9-2.4 4.2-3 5-1.4 2-9.2 20.3-9.8 23.2-.3 1.3-1.3 5.2-2.2 8.8-2.1 8.5-2.6 27.5-.9 36.5 2.1 10.9 2.4 12.2 4.9 18.9 13.4 35.5 46.5 69.4 99.1 101.6 33.6 20.5 75.9 40.3 119.4 55.6 6.8 2.4 13.2 4.4 14.3 4.4 3 0 45.5-15.8 59.8-22.2 19.2-8.7 26.4-12.1 40.1-19 40.1-20.2 76.4-45.4 98.8-68.7 37.7-39.2 49.1-78.1 35-119.6-1.7-5-3.9-10.5-5-12.3-1-1.8-1.9-3.7-1.9-4.2 0-2.3-14-22.9-22.4-33-8-9.5-24.3-25.5-34.6-34-3-2.5-5.7-4.8-6-5.1-2.6-2.9-52.8-37.9-54.4-37.9-.2 0-3.6-2.2-7.7-4.9-7.7-5-22.3-13.6-36.9-21.5-13.9-7.6-61.1-30.9-61.6-30.3-.2.2 3.5 3.3 8.3 6.8 20.4 14.8 40.6 35.1 49.5 49.7 1.2 2 2.5 3.9 2.8 4.2 1.7 1.4 9.2 18.6 11.1 25.5 2.4 8.4 3.2 25.8 1.6 34-1.1 5.9-5.5 17.3-8.9 23.5-6.9 12.2-23.2 30.5-35.3 39.5-2.2 1.7-4.6 3.6-5.4 4.3-1.5 1.4-22.5 15.4-25.6 17-1.7.9-4-.3-15.1-7.6-34.4-22.9-54.2-45.9-61.4-71.4-2.4-8.3-3.3-21.9-2-29.3 1.7-9.3 2.1-11 4.3-17 7.9-21.8 26.3-45 52.7-66.2 12.5-10.1 19.6-14.7 21.1-13.8.8.5 1 .4.5-.3-.4-.7-1-1.2-1.4-1.2-.4 0-14.5 6.9-31.2 15.3z"/></svg>